<?xml version="1.0" encoding="utf-8"?>
<!-- Generator: Adobe Illustrator 16.0.0, SVG Export Plug-In . SVG Version: 6.00 Build 0)  -->
<!DOCTYPE svg PUBLIC "-//W3C//DTD SVG 1.1//EN" "http://www.w3.org/Graphics/SVG/1.1/DTD/svg11.dtd">
<svg version="1.1" xmlns="http://www.w3.org/2000/svg" xmlns:xlink="http://www.w3.org/1999/xlink" x="0px" y="0px" width="1200px"
	 height="1200px" viewBox="0 0 1200 1200" enable-background="new 0 0 1200 1200" xml:space="preserve">
<g id="Layer_4">
</g>
<g id="Layer_3">
</g>
<g id="Layer_5">
	<path fill="#231F20" d="M917.719,591.958c65.001-139.613,4.881-305.809-134.018-370.477
		c-138.898-64.668-304.782-3.695-369.783,135.918c-56.991,122.409-17.792,265.244,86.348,342.176L375.453,967.656
		c-11.788,25.319-0.824,55.631,24.367,67.359l18.694,8.703c25.19,11.729,55.445,0.607,67.233-24.712l125.897-270.41
		C734.199,772.524,862.439,710.689,917.719,591.958z M582.928,652.715c-97.667-45.472-139.94-162.333-94.235-260.502
		s162.348-141.043,260.015-95.571c97.667,45.471,139.94,162.333,94.235,260.502C797.237,655.313,680.596,698.187,582.928,652.715z"
		/>
</g>
</svg>
